<?xml version="1.0" encoding="UTF-8"?>
<svg xmlns="http://www.w3.org/2000/svg" xmlns:xlink="http://www.w3.org/1999/xlink" width="48pt" height="48pt" viewBox="0 0 48 48" version="1.2">
<defs>
<clipPath id="clip1">
  <path d="M 5.109375 0.183594 L 42.734375 0.183594 L 42.734375 47.011719 L 5.109375 47.011719 Z M 5.109375 0.183594 "/>
</clipPath>
<clipPath id="clip2">
  <path d="M 1.546875 21 L 20 21 L 20 30 L 1.546875 30 Z M 1.546875 21 "/>
</clipPath>
<clipPath id="clip3">
  <path d="M 35.039062 21.351562 L 46.28125 21.351562 L 46.28125 39.65625 L 35.039062 39.65625 Z M 35.039062 21.351562 "/>
</clipPath>
</defs>
<g id="surface1">
<g clip-path="url(#clip1)" clip-rule="nonzero">
<path style=" stroke:none;fill-rule:nonzero;fill:rgb(73.329163%,18.03894%,20.388794%);fill-opacity:1;" d="M 22.9375 1.929688 L 20.828125 0.707031 C 19.625 0.0078125 18.144531 0.0078125 16.941406 0.707031 L 8.15625 5.796875 C 6.328125 6.855469 5.203125 8.8125 5.203125 10.929688 L 5.203125 29.21875 C 5.207031 33.761719 7.625 37.960938 11.546875 40.230469 L 22.660156 46.667969 C 23.457031 47.128906 24.433594 47.128906 25.226562 46.667969 L 36.34375 40.230469 C 40.265625 37.960938 42.683594 33.761719 42.6875 29.21875 L 42.6875 10.929688 C 42.691406 8.8125 41.566406 6.855469 39.742188 5.796875 L 30.949219 0.707031 C 29.746094 0.0078125 28.265625 0.0078125 27.0625 0.707031 L 24.953125 1.929688 C 24.328125 2.289062 23.5625 2.289062 22.9375 1.929688 "/>
</g>
<path style=" stroke:none;fill-rule:nonzero;fill:rgb(89.408875%,28.239441%,21.569824%);fill-opacity:1;" d="M 39.742188 5.796875 L 30.949219 0.707031 C 29.746094 0.0078125 28.265625 0.0078125 27.0625 0.707031 L 24.953125 1.925781 C 24.328125 2.289062 23.5625 2.289062 22.9375 1.925781 L 20.832031 0.707031 C 19.628906 0.0078125 18.144531 0.0078125 16.941406 0.707031 L 8.15625 5.796875 C 6.328125 6.855469 5.203125 8.8125 5.203125 10.929688 L 5.203125 29.21875 C 5.207031 33.761719 7.625 37.960938 11.546875 40.230469 L 18.53125 44.277344 C 20.082031 45.175781 22.070312 44.644531 22.964844 43.085938 C 22.972656 43.078125 22.976562 43.070312 22.980469 43.058594 L 23.101562 42.847656 C 24.210938 40.859375 22.96875 38.402344 20.726562 38.042969 C 19.839844 37.914062 19.011719 37.523438 18.347656 36.921875 C 17.351562 36.066406 16.738281 34.847656 16.636719 33.539062 L 16.164062 33.265625 C 15.019531 32.601562 14.3125 31.375 14.3125 30.046875 L 14.3125 27.871094 C 14.3125 27.117188 14.542969 26.378906 14.96875 25.761719 L 14.582031 25.535156 C 13.328125 24.804688 12.554688 23.464844 12.554688 22.007812 L 12.554688 13.507812 C 12.554688 12.054688 13.324219 10.710938 14.582031 9.984375 L 17.507812 8.28125 C 18.765625 7.554688 20.3125 7.554688 21.566406 8.28125 L 23.480469 9.386719 C 23.765625 9.554688 24.117188 9.554688 24.402344 9.386719 L 26.308594 8.28125 C 27.566406 7.554688 29.113281 7.554688 30.367188 8.28125 L 33.304688 9.984375 C 34.320312 10.53125 35.027344 11.515625 35.226562 12.652344 C 35.574219 14.347656 37.039062 15.574219 38.757812 15.617188 L 38.832031 15.617188 C 40.898438 15.679688 42.617188 14.046875 42.679688 11.976562 C 42.679688 11.941406 42.679688 11.90625 42.679688 11.871094 L 42.679688 10.925781 C 42.683594 8.8125 41.5625 6.859375 39.742188 5.796875 "/>
<path style=" stroke:none;fill-rule:nonzero;fill:rgb(95.689392%,47.059631%,13.328552%);fill-opacity:1;" d="M 12.191406 36.570312 C 11.90625 36.570312 11.636719 36.4375 11.460938 36.210938 C 10.21875 34.597656 9.921875 32.445312 10.679688 30.550781 C 10.867188 30.074219 11.410156 29.84375 11.882812 30.035156 C 12.359375 30.226562 12.585938 30.769531 12.394531 31.246094 C 11.886719 32.527344 12.085938 33.980469 12.925781 35.070312 C 13.238281 35.476562 13.164062 36.0625 12.761719 36.375 C 12.597656 36.5 12.398438 36.570312 12.195312 36.570312 L 12.191406 36.570312 "/>
<path style=" stroke:none;fill-rule:nonzero;fill:rgb(95.689392%,47.059631%,13.328552%);fill-opacity:1;" d="M 13.441406 6.699219 C 13.171875 6.699219 12.917969 6.582031 12.742188 6.378906 C 11.839844 5.335938 10.453125 4.855469 9.101562 5.109375 C 8.597656 5.191406 8.121094 4.847656 8.039062 4.339844 C 7.960938 3.851562 8.277344 3.386719 8.757812 3.28125 C 10.757812 2.90625 12.804688 3.621094 14.140625 5.160156 C 14.476562 5.546875 14.433594 6.132812 14.046875 6.472656 C 13.878906 6.617188 13.664062 6.699219 13.441406 6.699219 "/>
<path style=" stroke:none;fill-rule:nonzero;fill:rgb(95.689392%,47.059631%,13.328552%);fill-opacity:1;" d="M 10.375 20.117188 C 10.066406 20.117188 9.769531 19.980469 9.570312 19.746094 C 8.542969 18.5625 6.964844 18.011719 5.425781 18.300781 C 4.847656 18.414062 4.285156 18.03125 4.175781 17.449219 C 4.0625 16.867188 4.441406 16.304688 5.023438 16.195312 C 5.023438 16.195312 5.027344 16.191406 5.03125 16.191406 C 7.316406 15.765625 9.65625 16.582031 11.183594 18.339844 C 11.570312 18.785156 11.523438 19.460938 11.078125 19.851562 C 10.882812 20.019531 10.632812 20.113281 10.375 20.113281 L 10.375 20.117188 "/>
<path style=" stroke:none;fill-rule:nonzero;fill:rgb(95.689392%,47.059631%,13.328552%);fill-opacity:1;" d="M 17.488281 24 C 17.328125 23.667969 17.011719 23.445312 16.648438 23.402344 C 16.503906 23.386719 16.363281 23.375 16.226562 23.363281 C 11.25 21.296875 5.546875 23.667969 3.484375 28.660156 C 2.699219 30.566406 2.53125 32.675781 3.011719 34.683594 C 3.121094 35.167969 3.554688 35.511719 4.050781 35.511719 C 4.175781 35.511719 4.300781 35.488281 4.421875 35.445312 C 4.933594 35.238281 5.21875 34.679688 5.078125 34.144531 C 4.621094 32.183594 4.953125 30.125 6.007812 28.414062 C 6.367188 27.820312 6.808594 27.277344 7.320312 26.800781 C 7.441406 26.6875 7.636719 26.695312 7.75 26.820312 C 7.847656 26.929688 7.855469 27.09375 7.769531 27.210938 C 5.109375 30.742188 5.136719 35.621094 7.835938 39.121094 C 8.199219 39.585938 8.871094 39.667969 9.335938 39.304688 C 9.351562 39.292969 9.367188 39.277344 9.382812 39.261719 C 9.808594 38.871094 9.855469 38.210938 9.496094 37.761719 C 6.941406 34.410156 7.578125 29.613281 10.917969 27.050781 C 12.292969 25.992188 13.988281 25.441406 15.722656 25.484375 C 15.953125 25.589844 16.175781 25.710938 16.394531 25.839844 C 16.90625 26.144531 17.566406 25.972656 17.871094 25.460938 C 17.945312 25.328125 17.996094 25.179688 18.011719 25.027344 C 18.066406 24.609375 17.855469 24.203125 17.488281 24 "/>
<g clip-path="url(#clip2)" clip-rule="nonzero">
<path style=" stroke:none;fill-rule:nonzero;fill:rgb(95.689392%,47.059631%,13.328552%);fill-opacity:1;" d="M 2.617188 29.472656 C 2.027344 29.472656 1.546875 28.992188 1.546875 28.398438 C 1.546875 28.285156 1.566406 28.171875 1.601562 28.0625 C 3.292969 22.929688 8.8125 20.148438 13.921875 21.847656 C 16.335938 22.648438 18.34375 24.367188 19.515625 26.628906 C 19.785156 27.15625 19.582031 27.804688 19.058594 28.078125 C 18.535156 28.347656 17.886719 28.144531 17.617188 27.617188 C 15.679688 23.871094 11.085938 22.410156 7.355469 24.351562 C 5.589844 25.269531 4.257812 26.839844 3.632812 28.730469 C 3.488281 29.171875 3.078125 29.46875 2.617188 29.472656 "/>
</g>
<path style=" stroke:none;fill-rule:nonzero;fill:rgb(95.689392%,47.059631%,13.328552%);fill-opacity:1;" d="M 3.570312 22.816406 C 2.980469 22.816406 2.503906 22.335938 2.503906 21.746094 C 2.5 21.460938 2.613281 21.1875 2.816406 20.984375 C 4.824219 18.964844 7.617188 17.925781 10.453125 18.144531 C 11.046875 18.1875 11.488281 18.703125 11.445312 19.296875 C 11.398438 19.890625 10.882812 20.332031 10.292969 20.289062 C 8.082031 20.117188 5.902344 20.921875 4.328125 22.496094 C 4.128906 22.699219 3.855469 22.816406 3.570312 22.816406 "/>
<path style=" stroke:none;fill-rule:nonzero;fill:rgb(98.039246%,71.369934%,23.529053%);fill-opacity:1;" d="M 6.875 18.554688 C 6.578125 18.664062 6.429688 18.992188 6.535156 19.289062 C 6.542969 19.300781 6.546875 19.3125 6.550781 19.324219 C 6.679688 19.589844 6.992188 19.710938 7.265625 19.597656 C 8.042969 19.273438 8.902344 19.203125 9.71875 19.402344 C 9.980469 19.46875 10.246094 19.335938 10.355469 19.089844 L 10.355469 19.082031 C 10.476562 18.804688 10.355469 18.480469 10.078125 18.355469 C 10.050781 18.34375 10.023438 18.335938 9.992188 18.328125 C 8.957031 18.070312 7.863281 18.148438 6.875 18.554688 "/>
<path style=" stroke:none;fill-rule:nonzero;fill:rgb(73.329163%,18.03894%,20.388794%);fill-opacity:1;" d="M 16.460938 25.546875 C 16.421875 25.035156 15.984375 24.652344 15.476562 24.6875 C 15.417969 24.6875 15.359375 24.699219 15.300781 24.707031 C 14.851562 24.476562 14.371094 24.308594 13.878906 24.203125 C 14.09375 24.199219 14.304688 24.113281 14.464844 23.96875 C 14.839844 23.605469 14.855469 23.007812 14.507812 22.625 C 13.175781 21.136719 11.171875 20.445312 9.214844 20.800781 C 8.730469 20.878906 8.378906 21.3125 8.410156 21.804688 C 8.449219 22.316406 8.898438 22.695312 9.40625 22.65625 C 9.445312 22.652344 9.480469 22.644531 9.515625 22.640625 C 10.128906 22.507812 10.761719 22.535156 11.359375 22.71875 C 12.117188 22.957031 12.097656 24.054688 11.324219 24.246094 C 10.957031 24.335938 10.601562 24.464844 10.257812 24.625 C 9.816406 24.824219 9.59375 25.324219 9.738281 25.785156 C 9.90625 26.269531 10.433594 26.527344 10.917969 26.359375 C 10.953125 26.347656 10.984375 26.332031 11.019531 26.316406 C 11.164062 26.246094 11.3125 26.183594 11.46875 26.132812 C 11.582031 26.09375 11.703125 26.152344 11.742188 26.265625 C 11.769531 26.34375 11.75 26.425781 11.695312 26.484375 C 11.324219 26.882812 11.007812 27.332031 10.761719 27.816406 C 10.546875 28.238281 10.667969 28.753906 11.046875 29.03125 C 11.46875 29.324219 12.046875 29.21875 12.335938 28.796875 C 12.363281 28.761719 12.386719 28.71875 12.40625 28.679688 C 12.914062 27.660156 13.84375 26.917969 14.945312 26.644531 C 15.375 26.867188 15.902344 26.71875 16.152344 26.300781 C 16.367188 26.113281 16.480469 25.832031 16.460938 25.546875 "/>
<path style=" stroke:none;fill-rule:nonzero;fill:rgb(73.329163%,18.03894%,20.388794%);fill-opacity:1;" d="M 14.566406 19.449219 C 14.125 19.449219 13.746094 19.136719 13.660156 18.703125 C 13.382812 17.355469 12.414062 16.253906 11.117188 15.804688 C 10.628906 15.640625 10.371094 15.113281 10.535156 14.628906 C 10.699219 14.140625 11.226562 13.878906 11.710938 14.046875 C 13.632812 14.707031 15.066406 16.339844 15.476562 18.335938 C 15.578125 18.839844 15.25 19.332031 14.75 19.433594 C 14.6875 19.445312 14.628906 19.453125 14.566406 19.453125 L 14.566406 19.449219 "/>
<path style=" stroke:none;fill-rule:nonzero;fill:rgb(98.039246%,71.369934%,23.529053%);fill-opacity:1;" d="M 6.507812 31.019531 L 6.496094 31.019531 C 6.242188 30.902344 6.113281 30.617188 6.191406 30.347656 C 6.417969 29.574219 6.738281 28.828125 7.152344 28.136719 C 7.320312 27.867188 7.671875 27.789062 7.9375 27.957031 C 8.007812 28.003906 8.070312 28.0625 8.113281 28.136719 L 8.113281 28.144531 C 8.21875 28.320312 8.21875 28.539062 8.113281 28.71875 C 7.753906 29.328125 7.472656 29.980469 7.273438 30.660156 C 7.179688 30.964844 6.863281 31.132812 6.5625 31.039062 C 6.542969 31.035156 6.523438 31.027344 6.507812 31.019531 "/>
<path style=" stroke:none;fill-rule:nonzero;fill:rgb(98.039246%,71.369934%,23.529053%);fill-opacity:1;" d="M 4.953125 26.203125 C 5.488281 25.542969 6.109375 24.957031 6.796875 24.460938 C 7.054688 24.277344 7.410156 24.339844 7.589844 24.601562 C 7.625 24.648438 7.648438 24.703125 7.667969 24.761719 L 7.667969 24.777344 C 7.730469 25.003906 7.648438 25.25 7.457031 25.390625 C 6.851562 25.828125 6.304688 26.347656 5.832031 26.929688 C 5.628906 27.171875 5.269531 27.199219 5.03125 26.996094 C 5.023438 26.988281 5.015625 26.980469 5.007812 26.972656 L 5 26.964844 C 4.789062 26.761719 4.769531 26.429688 4.953125 26.203125 "/>
<path style=" stroke:none;fill-rule:nonzero;fill:rgb(98.039246%,71.369934%,23.529053%);fill-opacity:1;" d="M 4.449219 28.019531 L 4.484375 28.039062 C 4.722656 28.191406 4.8125 28.5 4.691406 28.757812 L 4.691406 28.765625 C 4.566406 29.027344 4.265625 29.144531 3.996094 29.042969 L 3.960938 29.03125 C 3.679688 28.921875 3.535156 28.609375 3.640625 28.324219 C 3.644531 28.308594 3.648438 28.296875 3.65625 28.285156 L 3.671875 28.253906 C 3.800781 27.980469 4.128906 27.863281 4.402344 27.996094 C 4.417969 28.003906 4.433594 28.011719 4.449219 28.019531 "/>
<path style=" stroke:none;fill-rule:nonzero;fill:rgb(89.408875%,28.239441%,21.569824%);fill-opacity:1;" d="M 35.640625 36.570312 C 35.128906 36.570312 34.714844 36.152344 34.714844 35.640625 C 34.714844 35.433594 34.785156 35.234375 34.910156 35.070312 C 35.519531 34.285156 35.800781 33.292969 35.699219 32.300781 C 35.652344 31.789062 36.03125 31.339844 36.542969 31.296875 C 37.039062 31.253906 37.480469 31.613281 37.539062 32.113281 C 37.695312 33.578125 37.273438 35.046875 36.375 36.210938 C 36.199219 36.4375 35.925781 36.570312 35.640625 36.570312 "/>
<path style=" stroke:none;fill-rule:nonzero;fill:rgb(89.408875%,28.239441%,21.569824%);fill-opacity:1;" d="M 44.261719 22.816406 C 43.976562 22.816406 43.707031 22.703125 43.503906 22.503906 C 41.933594 20.921875 39.753906 20.113281 37.539062 20.285156 C 36.949219 20.328125 36.433594 19.882812 36.390625 19.292969 C 36.34375 18.699219 36.789062 18.183594 37.378906 18.136719 C 40.214844 17.921875 43.007812 18.960938 45.015625 20.984375 C 45.433594 21.40625 45.433594 22.085938 45.015625 22.503906 C 44.8125 22.703125 44.542969 22.816406 44.257812 22.816406 L 44.261719 22.816406 "/>
<g clip-path="url(#clip3)" clip-rule="nonzero">
<path style=" stroke:none;fill-rule:nonzero;fill:rgb(89.408875%,28.239441%,21.569824%);fill-opacity:1;" d="M 46.222656 28.035156 C 44.765625 23.660156 40.460938 20.902344 35.894531 21.414062 C 35.636719 21.441406 35.4375 21.65625 35.421875 21.917969 L 35.421875 21.921875 C 35.402344 22.21875 35.625 22.476562 35.921875 22.496094 C 35.945312 22.496094 35.96875 22.496094 35.992188 22.496094 C 36.621094 22.449219 37.25 22.511719 37.855469 22.671875 C 38.324219 22.789062 38.632812 23.242188 38.566406 23.722656 C 38.488281 24.230469 38.015625 24.578125 37.511719 24.5 C 37.476562 24.492188 37.441406 24.484375 37.40625 24.476562 C 36.90625 24.339844 36.386719 24.304688 35.875 24.371094 C 35.453125 24.433594 35.121094 24.765625 35.054688 25.191406 C 34.992188 25.632812 35.222656 26.066406 35.625 26.257812 C 39.40625 28.109375 40.972656 32.683594 39.128906 36.476562 C 38.90625 36.929688 38.640625 37.363281 38.335938 37.765625 C 37.972656 38.21875 38.019531 38.875 38.445312 39.269531 C 38.886719 39.660156 39.5625 39.617188 39.953125 39.175781 C 39.96875 39.160156 39.980469 39.140625 39.996094 39.125 C 42.746094 35.5625 42.714844 30.574219 39.925781 27.042969 C 39.828125 26.917969 39.847656 26.738281 39.96875 26.640625 C 40.078125 26.554688 40.226562 26.558594 40.332031 26.644531 C 42.460938 28.511719 43.386719 31.402344 42.746094 34.160156 C 42.589844 34.730469 42.925781 35.320312 43.492188 35.476562 C 43.585938 35.5 43.683594 35.515625 43.777344 35.515625 C 44.273438 35.515625 44.703125 35.171875 44.816406 34.691406 C 45.25 32.890625 45.164062 31.007812 44.566406 29.253906 C 44.886719 29.503906 45.320312 29.546875 45.683594 29.367188 C 46.167969 29.121094 46.402344 28.550781 46.222656 28.035156 "/>
</g>
<path style=" stroke:none;fill-rule:nonzero;fill:rgb(95.689392%,47.059631%,13.328552%);fill-opacity:1;" d="M 41.324219 31.019531 L 41.335938 31.019531 C 41.589844 30.902344 41.71875 30.617188 41.640625 30.347656 C 41.414062 29.574219 41.09375 28.828125 40.683594 28.136719 C 40.515625 27.867188 40.164062 27.789062 39.898438 27.957031 C 39.824219 28.003906 39.765625 28.0625 39.71875 28.136719 L 39.71875 28.144531 C 39.617188 28.320312 39.617188 28.539062 39.71875 28.71875 C 40.078125 29.328125 40.359375 29.980469 40.558594 30.660156 C 40.652344 30.964844 40.96875 31.132812 41.273438 31.039062 C 41.289062 31.035156 41.308594 31.027344 41.324219 31.019531 "/>
<path style=" stroke:none;fill-rule:nonzero;fill:rgb(95.689392%,47.059631%,13.328552%);fill-opacity:1;" d="M 42.878906 26.203125 C 42.34375 25.542969 41.722656 24.957031 41.035156 24.460938 C 40.777344 24.277344 40.421875 24.339844 40.242188 24.601562 C 40.207031 24.648438 40.179688 24.703125 40.164062 24.761719 L 40.164062 24.777344 C 40.101562 25.003906 40.183594 25.25 40.375 25.390625 C 40.980469 25.828125 41.527344 26.347656 42 26.929688 C 42.203125 27.171875 42.5625 27.199219 42.804688 26.996094 C 42.8125 26.988281 42.820312 26.980469 42.828125 26.972656 L 42.835938 26.964844 C 43.042969 26.761719 43.0625 26.429688 42.878906 26.203125 "/>
<path style=" stroke:none;fill-rule:nonzero;fill:rgb(95.689392%,47.059631%,13.328552%);fill-opacity:1;" d="M 43.382812 28.019531 L 43.351562 28.039062 C 43.109375 28.191406 43.019531 28.5 43.144531 28.757812 L 43.144531 28.765625 C 43.265625 29.027344 43.570312 29.144531 43.835938 29.042969 L 43.871094 29.03125 C 44.152344 28.921875 44.296875 28.609375 44.191406 28.324219 C 44.1875 28.308594 44.183594 28.296875 44.175781 28.285156 L 44.164062 28.253906 C 44.03125 27.980469 43.703125 27.863281 43.429688 27.996094 C 43.414062 28.003906 43.398438 28.011719 43.382812 28.019531 "/>
<path style=" stroke:none;fill-rule:nonzero;fill:rgb(73.329163%,18.03894%,20.388794%);fill-opacity:1;" d="M 39.226562 12.371094 C 38.675781 12.375 38.226562 11.925781 38.226562 11.375 C 38.226562 11.058594 38.371094 10.761719 38.621094 10.574219 C 39.84375 9.636719 41.386719 9.230469 42.90625 9.445312 C 43.453125 9.523438 43.835938 10.027344 43.761719 10.574219 C 43.683594 11.125 43.183594 11.507812 42.636719 11.429688 C 41.636719 11.289062 40.625 11.554688 39.828125 12.167969 C 39.652344 12.300781 39.441406 12.371094 39.226562 12.371094 "/>
<path style=" stroke:none;fill-rule:nonzero;fill:rgb(73.329163%,18.03894%,20.388794%);fill-opacity:1;" d="M 29.964844 4.558594 L 29.964844 4.539062 C 29.914062 3.992188 29.429688 3.59375 28.886719 3.648438 C 28.789062 3.65625 28.691406 3.679688 28.597656 3.71875 C 28.457031 3.78125 28.316406 3.847656 28.183594 3.925781 L 28.117188 3.964844 C 27.664062 4.226562 27.246094 4.546875 26.875 4.917969 C 26.71875 5.066406 26.46875 5.0625 26.320312 4.90625 C 26.214844 4.796875 26.183594 4.632812 26.238281 4.488281 C 26.585938 3.640625 27.203125 2.933594 27.992188 2.472656 L 28.007812 2.464844 L 28.058594 2.433594 C 28.125 2.398438 28.191406 2.363281 28.261719 2.332031 C 28.652344 2.164062 28.890625 1.757812 28.84375 1.332031 L 28.84375 1.316406 C 28.792969 0.773438 28.308594 0.375 27.765625 0.425781 C 27.667969 0.433594 27.570312 0.460938 27.480469 0.5 C 27.335938 0.558594 27.195312 0.628906 27.058594 0.707031 L 26.992188 0.746094 C 25.089844 1.851562 23.921875 3.894531 23.921875 6.101562 L 23.921875 19.574219 C 24.296875 19.527344 24.671875 19.476562 25.042969 19.417969 L 25.042969 22.792969 C 25.710938 22.714844 26.375 22.613281 27.039062 22.480469 L 27.039062 9.324219 C 27.042969 7.828125 27.832031 6.449219 29.121094 5.699219 L 29.132812 5.691406 L 29.1875 5.664062 C 29.253906 5.625 29.320312 5.589844 29.390625 5.5625 C 29.777344 5.386719 30.011719 4.984375 29.964844 4.558594 "/>
<path style=" stroke:none;fill-rule:nonzero;fill:rgb(97.24884%,60.778809%,18.03894%);fill-opacity:1;" d="M 22.699219 10.75 L 20.789062 9.644531 C 20.019531 9.199219 19.070312 9.199219 18.296875 9.644531 L 15.371094 11.339844 C 14.601562 11.785156 14.125 12.609375 14.125 13.503906 L 14.125 22.007812 C 14.125 22.902344 14.601562 23.726562 15.371094 24.171875 L 22.707031 28.425781 C 23.476562 28.871094 24.425781 28.871094 25.195312 28.425781 L 32.53125 24.171875 C 33.304688 23.726562 33.777344 22.902344 33.777344 22.007812 L 33.777344 13.507812 C 33.777344 12.613281 33.300781 11.785156 32.523438 11.339844 L 29.589844 9.644531 C 28.820312 9.199219 27.871094 9.199219 27.101562 9.644531 L 25.191406 10.75 C 24.417969 11.199219 23.46875 11.199219 22.699219 10.75 "/>
<path style=" stroke:none;fill-rule:nonzero;fill:rgb(98.429871%,79.60968%,39.608765%);fill-opacity:1;" d="M 16.148438 22.8125 C 15.863281 22.644531 15.6875 22.339844 15.6875 22.007812 L 15.6875 13.507812 C 15.6875 13.179688 15.863281 12.875 16.148438 12.707031 L 17.15625 12.125 C 16.941406 11.644531 16.691406 11.183594 16.40625 10.742188 L 15.371094 11.339844 C 14.601562 11.785156 14.125 12.609375 14.125 13.503906 L 14.125 22.007812 C 14.125 22.902344 14.601562 23.726562 15.371094 24.171875 L 15.675781 24.355469 C 16.042969 24.570312 16.511719 24.445312 16.730469 24.082031 L 16.738281 24.066406 C 16.957031 23.695312 16.835938 23.21875 16.464844 23 C 16.460938 23 16.457031 22.996094 16.453125 22.992188 L 16.148438 22.8125 "/>
<path style=" stroke:none;fill-rule:nonzero;fill:rgb(95.689392%,47.059631%,13.328552%);fill-opacity:1;" d="M 33.769531 13.507812 L 33.769531 22.007812 C 33.769531 22.902344 33.296875 23.726562 32.527344 24.171875 L 27.445312 27.117188 C 27.136719 26.472656 26.832031 25.820312 26.546875 25.160156 L 31.457031 22.316406 C 31.566406 22.253906 31.632812 22.136719 31.632812 22.007812 L 31.632812 13.507812 C 31.636719 13.382812 31.566406 13.261719 31.457031 13.199219 L 28.523438 11.5 C 28.46875 11.46875 28.410156 11.449219 28.347656 11.453125 C 28.285156 11.449219 28.222656 11.46875 28.171875 11.5 L 26.261719 12.605469 C 26.152344 12.667969 26.042969 12.726562 25.929688 12.777344 C 25.398438 13.035156 25.058594 13.574219 25.0625 14.167969 C 25.070312 14.785156 24.605469 15.304688 23.992188 15.359375 C 23.359375 15.402344 22.8125 14.921875 22.769531 14.285156 C 22.765625 14.261719 22.765625 14.238281 22.765625 14.214844 L 22.765625 14.144531 C 22.765625 13.558594 22.433594 13.023438 21.910156 12.761719 C 21.816406 12.71875 21.722656 12.667969 21.636719 12.621094 L 19.722656 11.511719 C 19.617188 11.449219 19.480469 11.449219 19.371094 11.511719 L 16.882812 12.941406 C 16.597656 13.105469 16.257812 13.132812 15.953125 13.011719 C 15.40625 12.792969 15.136719 12.167969 15.355469 11.617188 C 15.445312 11.390625 15.609375 11.203125 15.820312 11.082031 L 15.945312 11.007812 L 18.300781 9.644531 C 19.070312 9.199219 20.019531 9.199219 20.789062 9.644531 L 22.703125 10.75 C 23.472656 11.199219 24.421875 11.199219 25.191406 10.75 L 27.101562 9.644531 C 27.871094 9.199219 28.820312 9.199219 29.589844 9.644531 L 32.527344 11.339844 C 33.296875 11.789062 33.773438 12.613281 33.769531 13.507812 "/>
<path style=" stroke:none;fill-rule:nonzero;fill:rgb(98.039246%,71.369934%,23.529053%);fill-opacity:1;" d="M 18.1875 30.34375 L 29.644531 30.34375 L 29.644531 33.15625 C 29.644531 35.035156 28.125 36.5625 26.253906 36.5625 L 21.578125 36.5625 C 19.707031 36.5625 18.1875 35.035156 18.1875 33.15625 L 18.1875 30.34375 "/>
<path style=" stroke:none;fill-rule:nonzero;fill:rgb(98.81897%,88.62915%,62.348938%);fill-opacity:1;" d="M 28.363281 32.203125 L 28.363281 33.160156 C 28.363281 34.328125 27.417969 35.277344 26.253906 35.277344 L 21.582031 35.277344 C 21.105469 35.277344 20.640625 35.113281 20.269531 34.816406 C 20.019531 34.625 19.664062 34.648438 19.445312 34.875 L 19.433594 34.886719 C 19.183594 35.125 19.175781 35.523438 19.417969 35.773438 C 19.4375 35.796875 19.457031 35.8125 19.480469 35.832031 C 20.078125 36.304688 20.816406 36.5625 21.582031 36.5625 L 26.253906 36.5625 C 28.128906 36.5625 29.644531 35.039062 29.644531 33.160156 L 29.644531 32.273438 C 29.21875 32.25 28.792969 32.230469 28.363281 32.203125 "/>
<path style=" stroke:none;fill-rule:nonzero;fill:rgb(98.81897%,88.62915%,62.348938%);fill-opacity:1;" d="M 24.15625 35.601562 C 23.707031 35.4375 23.328125 35.128906 23.082031 34.71875 C 22.910156 34.453125 22.570312 34.355469 22.285156 34.492188 L 22.269531 34.492188 C 21.953125 34.628906 21.808594 35 21.945312 35.320312 C 21.957031 35.347656 21.972656 35.371094 21.984375 35.398438 C 22.210938 35.757812 22.5 36.074219 22.839844 36.328125 C 23.855469 36.128906 24.886719 36.175781 25.910156 36.238281 L 24.15625 35.601562 "/>
<path style=" stroke:none;fill-rule:nonzero;fill:rgb(96.469116%,54.508972%,15.689087%);fill-opacity:1;" d="M 33.023438 27.542969 L 33.023438 30.050781 C 33.023438 31.199219 32.414062 32.261719 31.421875 32.839844 L 29.898438 33.71875 C 29.789062 33.785156 29.679688 33.84375 29.566406 33.894531 C 29.222656 35.453125 27.84375 36.5625 26.253906 36.5625 L 25.96875 36.5625 C 25.636719 36.5625 25.363281 36.304688 25.335938 35.972656 L 25.335938 35.960938 C 25.308594 35.609375 25.570312 35.304688 25.917969 35.277344 C 25.933594 35.277344 25.953125 35.277344 25.96875 35.277344 L 26.273438 35.277344 C 27.046875 35.269531 27.121094 34.132812 26.363281 34 C 25.574219 33.867188 24.773438 33.800781 23.972656 33.804688 C 22.847656 33.804688 21.726562 33.929688 20.628906 34.167969 C 20.363281 34.226562 20.097656 34.253906 19.828125 34.253906 C 19.160156 34.246094 18.507812 34.0625 17.9375 33.71875 L 16.414062 32.839844 C 15.425781 32.261719 14.816406 31.199219 14.8125 30.050781 L 14.8125 27.542969 L 33.023438 27.542969 "/>
<path style=" stroke:none;fill-rule:nonzero;fill:rgb(91.758728%,42.749023%,16.468811%);fill-opacity:1;" d="M 31.957031 27.542969 L 14.808594 27.542969 L 14.808594 30.054688 C 14.8125 31.203125 15.421875 32.261719 16.410156 32.839844 L 17.9375 33.722656 C 18.511719 34.066406 19.164062 34.25 19.832031 34.257812 C 20.101562 34.253906 20.367188 34.226562 20.632812 34.167969 C 21.730469 33.929688 22.851562 33.808594 23.976562 33.804688 C 25.050781 33.804688 26.121094 33.921875 27.167969 34.160156 C 27.445312 34.222656 27.730469 34.253906 28.011719 34.257812 C 28.679688 34.25 29.332031 34.066406 29.90625 33.722656 L 31.425781 32.839844 C 32.417969 32.261719 33.027344 31.203125 33.027344 30.054688 L 33.027344 27.542969 L 31.957031 27.542969 "/>
<path style=" stroke:none;fill-rule:nonzero;fill:rgb(40.388489%,24.708557%,28.239441%);fill-opacity:1;" d="M 19.898438 24.445312 L 27.9375 24.445312 L 27.9375 32.785156 L 19.898438 32.785156 L 19.898438 24.445312 "/>
<path style=" stroke:none;fill-rule:nonzero;fill:rgb(98.429871%,75.289917%,37.649536%);fill-opacity:1;" d="M 24.59375 18.257812 C 24.601562 18.613281 24.335938 18.917969 23.984375 18.960938 C 23.613281 19 23.28125 18.726562 23.242188 18.351562 C 23.242188 18.332031 23.242188 18.308594 23.242188 18.285156 L 23.242188 18.257812 C 23.242188 16.972656 22.203125 15.929688 20.921875 15.929688 C 20.355469 15.929688 19.898438 16.390625 19.898438 16.960938 L 19.898438 24.445312 L 27.9375 24.445312 L 27.9375 16.960938 C 27.9375 16.394531 27.480469 15.933594 26.914062 15.929688 C 25.636719 15.929688 24.597656 16.96875 24.59375 18.253906 C 24.59375 18.253906 24.59375 18.253906 24.59375 18.257812 "/>
<path style=" stroke:none;fill-rule:nonzero;fill:rgb(91.758728%,42.749023%,16.468811%);fill-opacity:1;" d="M 32.027344 18.292969 C 31.820312 17.996094 31.441406 17.871094 31.101562 17.992188 L 29.488281 18.527344 L 29.488281 15.589844 L 29.828125 15.589844 C 29.960938 15.585938 30.070312 15.476562 30.070312 15.34375 C 30.070312 15.269531 30.035156 15.203125 29.984375 15.160156 L 29.574219 14.820312 L 28.792969 14.175781 C 28.570312 13.992188 28.238281 14.027344 28.054688 14.253906 C 27.980469 14.347656 27.941406 14.464844 27.9375 14.582031 L 27.9375 25.402344 L 29.492188 25.402344 L 29.492188 22.128906 C 29.496094 20.960938 30.242188 19.925781 31.34375 19.554688 L 31.628906 19.460938 C 32.039062 19.328125 32.257812 18.886719 32.125 18.476562 C 32.101562 18.414062 32.074219 18.351562 32.035156 18.296875 L 32.027344 18.292969 "/>
<path style=" stroke:none;fill-rule:nonzero;fill:rgb(91.758728%,42.749023%,16.468811%);fill-opacity:1;" d="M 15.800781 18.292969 C 16.003906 17.996094 16.386719 17.871094 16.726562 17.992188 L 18.339844 18.527344 L 18.339844 15.589844 L 18 15.589844 C 17.863281 15.585938 17.757812 15.476562 17.757812 15.34375 C 17.757812 15.269531 17.789062 15.203125 17.84375 15.160156 L 18.253906 14.820312 L 19.035156 14.175781 C 19.257812 13.992188 19.589844 14.027344 19.769531 14.253906 C 19.847656 14.347656 19.886719 14.464844 19.886719 14.582031 L 19.886719 25.402344 L 18.335938 25.402344 L 18.335938 22.128906 C 18.332031 20.960938 17.585938 19.925781 16.480469 19.554688 L 16.195312 19.460938 C 15.789062 19.328125 15.570312 18.886719 15.703125 18.476562 C 15.726562 18.414062 15.753906 18.351562 15.792969 18.296875 L 15.800781 18.292969 "/>
<path style=" stroke:none;fill-rule:nonzero;fill:rgb(40.388489%,24.708557%,28.239441%);fill-opacity:1;" d="M 31.574219 15.917969 C 31.539062 15.726562 31.371094 15.589844 31.179688 15.59375 L 28.898438 15.59375 C 28.371094 15.59375 27.941406 16.023438 27.941406 16.550781 L 27.941406 18.191406 C 27.933594 18.40625 28.101562 18.585938 28.316406 18.59375 C 28.320312 18.59375 28.324219 18.59375 28.328125 18.59375 C 28.542969 18.589844 28.710938 18.417969 28.710938 18.203125 L 28.710938 17.957031 C 28.710938 17.917969 28.730469 17.882812 28.761719 17.863281 C 28.796875 17.839844 28.839844 17.835938 28.878906 17.851562 C 29.242188 18.007812 29.648438 18.019531 30.019531 17.890625 C 30.644531 17.671875 31.058594 17.078125 31.046875 16.414062 C 31.046875 16.398438 31.054688 16.386719 31.0625 16.378906 C 31.070312 16.371094 31.082031 16.367188 31.09375 16.367188 L 31.191406 16.367188 C 31.40625 16.367188 31.578125 16.191406 31.582031 15.976562 C 31.582031 15.957031 31.578125 15.933594 31.574219 15.914062 L 31.574219 15.917969 "/>
<path style=" stroke:none;fill-rule:nonzero;fill:rgb(95.689392%,47.059631%,13.328552%);fill-opacity:1;" d="M 30.164062 16.191406 C 30.03125 16.195312 29.921875 16.304688 29.921875 16.4375 C 29.917969 16.675781 29.71875 16.867188 29.480469 16.859375 C 29.238281 16.855469 29.050781 16.65625 29.054688 16.414062 C 29.054688 16.289062 28.949219 16.191406 28.824219 16.191406 C 28.695312 16.191406 28.585938 16.296875 28.585938 16.429688 C 28.585938 16.933594 28.992188 17.34375 29.496094 17.34375 C 30 17.34375 30.410156 16.933594 30.410156 16.429688 C 30.40625 16.296875 30.300781 16.191406 30.167969 16.191406 L 30.164062 16.191406 "/>
<path style=" stroke:none;fill-rule:nonzero;fill:rgb(98.429871%,79.60968%,39.608765%);fill-opacity:1;" d="M 30.402344 16.4375 C 30.40625 16.304688 30.300781 16.195312 30.167969 16.191406 C 30.152344 16.191406 30.140625 16.191406 30.125 16.195312 C 30.007812 16.222656 29.925781 16.324219 29.921875 16.445312 L 29.921875 16.457031 C 29.90625 16.5625 29.964844 16.664062 30.066406 16.703125 L 30.082031 16.703125 C 30.207031 16.746094 30.34375 16.675781 30.382812 16.550781 C 30.390625 16.535156 30.394531 16.515625 30.394531 16.496094 C 30.398438 16.480469 30.402344 16.460938 30.402344 16.4375 "/>
<path style=" stroke:none;fill-rule:nonzero;fill:rgb(98.429871%,79.60968%,39.608765%);fill-opacity:1;" d="M 29.066406 16.515625 C 29.058594 16.484375 29.054688 16.449219 29.054688 16.414062 C 29.054688 16.289062 28.949219 16.191406 28.824219 16.191406 C 28.695312 16.191406 28.585938 16.296875 28.585938 16.425781 C 28.585938 16.65625 28.675781 16.871094 28.828125 17.039062 C 28.921875 17.136719 29.070312 17.140625 29.167969 17.050781 C 29.191406 17.027344 29.210938 16.996094 29.222656 16.964844 C 29.257812 16.878906 29.238281 16.777344 29.171875 16.710938 C 29.121094 16.65625 29.085938 16.589844 29.066406 16.515625 "/>
<path style=" stroke:none;fill-rule:nonzero;fill:rgb(98.429871%,94.898987%,79.998779%);fill-opacity:1;" d="M 28.578125 16.4375 C 28.574219 16.304688 28.679688 16.195312 28.8125 16.191406 C 28.828125 16.191406 28.839844 16.191406 28.855469 16.195312 C 28.972656 16.222656 29.054688 16.324219 29.054688 16.445312 L 29.054688 16.457031 C 29.074219 16.5625 29.011719 16.664062 28.914062 16.703125 L 28.898438 16.703125 C 28.773438 16.746094 28.636719 16.675781 28.59375 16.550781 C 28.589844 16.535156 28.585938 16.515625 28.582031 16.496094 C 28.578125 16.480469 28.578125 16.460938 28.578125 16.4375 "/>
<path style=" stroke:none;fill-rule:nonzero;fill:rgb(98.81897%,86.268616%,56.469727%);fill-opacity:1;" d="M 31.277344 16.355469 C 31.25 16.363281 31.21875 16.367188 31.191406 16.367188 L 31.085938 16.367188 C 31.074219 16.367188 31.0625 16.371094 31.054688 16.378906 C 31.046875 16.390625 31.042969 16.402344 31.042969 16.414062 C 31.050781 17.078125 30.636719 17.671875 30.011719 17.890625 C 29.640625 18.019531 29.234375 18.003906 28.871094 17.851562 C 28.832031 17.832031 28.789062 17.835938 28.753906 17.859375 C 28.722656 17.882812 28.703125 17.917969 28.703125 17.957031 L 28.703125 18.203125 C 28.707031 18.414062 28.542969 18.582031 28.335938 18.59375 C 29.527344 19.234375 31.011719 18.785156 31.648438 17.589844 C 31.738281 17.421875 31.808594 17.242188 31.855469 17.0625 C 31.929688 16.769531 31.753906 16.476562 31.464844 16.402344 C 31.457031 16.402344 31.453125 16.398438 31.445312 16.398438 C 31.390625 16.375 31.332031 16.367188 31.277344 16.355469 "/>
<path style=" stroke:none;fill-rule:nonzero;fill:rgb(40.388489%,24.708557%,28.239441%);fill-opacity:1;" d="M 16.261719 15.917969 C 16.292969 15.726562 16.460938 15.585938 16.65625 15.589844 L 18.933594 15.589844 C 19.464844 15.589844 19.890625 16.019531 19.890625 16.546875 L 19.890625 18.1875 C 19.898438 18.402344 19.730469 18.582031 19.519531 18.589844 C 19.511719 18.589844 19.507812 18.589844 19.503906 18.589844 C 19.289062 18.589844 19.113281 18.417969 19.113281 18.203125 C 19.113281 18.203125 19.113281 18.199219 19.113281 18.199219 L 19.113281 17.953125 C 19.117188 17.914062 19.097656 17.878906 19.0625 17.859375 C 19.027344 17.835938 18.984375 17.832031 18.949219 17.847656 C 18.585938 18.003906 18.179688 18.015625 17.808594 17.886719 C 17.191406 17.664062 16.785156 17.070312 16.796875 16.414062 C 16.796875 16.398438 16.792969 16.386719 16.78125 16.378906 C 16.773438 16.371094 16.765625 16.367188 16.753906 16.367188 L 16.648438 16.367188 C 16.433594 16.367188 16.257812 16.191406 16.257812 15.976562 C 16.257812 15.957031 16.261719 15.933594 16.265625 15.914062 L 16.261719 15.917969 "/>
<path style=" stroke:none;fill-rule:nonzero;fill:rgb(95.689392%,47.059631%,13.328552%);fill-opacity:1;" d="M 19.015625 16.191406 C 18.882812 16.195312 18.777344 16.304688 18.777344 16.4375 C 18.769531 16.675781 18.570312 16.867188 18.332031 16.859375 C 18.09375 16.855469 17.90625 16.65625 17.910156 16.414062 C 17.90625 16.289062 17.804688 16.191406 17.679688 16.191406 C 17.546875 16.191406 17.441406 16.296875 17.4375 16.429688 C 17.4375 16.933594 17.847656 17.34375 18.351562 17.34375 C 18.855469 17.34375 19.261719 16.933594 19.261719 16.429688 C 19.261719 16.296875 19.152344 16.191406 19.023438 16.191406 L 19.015625 16.191406 "/>
<path style=" stroke:none;fill-rule:nonzero;fill:rgb(98.429871%,79.60968%,39.608765%);fill-opacity:1;" d="M 19.253906 16.4375 C 19.257812 16.304688 19.152344 16.195312 19.019531 16.191406 C 19.007812 16.191406 18.992188 16.191406 18.980469 16.195312 C 18.863281 16.222656 18.777344 16.324219 18.777344 16.445312 L 18.777344 16.457031 C 18.761719 16.5625 18.820312 16.664062 18.917969 16.703125 L 18.9375 16.703125 C 19.0625 16.746094 19.195312 16.675781 19.238281 16.550781 C 19.246094 16.535156 19.25 16.515625 19.25 16.496094 C 19.253906 16.480469 19.253906 16.460938 19.253906 16.4375 "/>
<path style=" stroke:none;fill-rule:nonzero;fill:rgb(98.429871%,79.60968%,39.608765%);fill-opacity:1;" d="M 17.921875 16.515625 C 17.914062 16.484375 17.910156 16.449219 17.910156 16.414062 C 17.90625 16.289062 17.804688 16.191406 17.679688 16.191406 C 17.546875 16.191406 17.441406 16.296875 17.4375 16.425781 C 17.441406 16.65625 17.527344 16.871094 17.683594 17.039062 C 17.773438 17.136719 17.925781 17.140625 18.019531 17.050781 C 18.042969 17.027344 18.0625 16.996094 18.078125 16.964844 C 18.109375 16.878906 18.089844 16.777344 18.027344 16.710938 C 17.976562 16.65625 17.9375 16.589844 17.921875 16.515625 "/>
<path style=" stroke:none;fill-rule:nonzero;fill:rgb(98.429871%,94.898987%,79.998779%);fill-opacity:1;" d="M 17.429688 16.4375 C 17.429688 16.304688 17.535156 16.195312 17.667969 16.191406 C 17.679688 16.191406 17.695312 16.191406 17.707031 16.195312 C 17.824219 16.222656 17.910156 16.324219 17.910156 16.445312 L 17.910156 16.457031 C 17.925781 16.5625 17.867188 16.664062 17.769531 16.703125 L 17.75 16.703125 C 17.625 16.746094 17.492188 16.675781 17.449219 16.550781 C 17.441406 16.535156 17.4375 16.515625 17.4375 16.496094 C 17.433594 16.480469 17.433594 16.460938 17.429688 16.4375 "/>
<path style=" stroke:none;fill-rule:nonzero;fill:rgb(98.81897%,86.268616%,56.469727%);fill-opacity:1;" d="M 16.554688 16.355469 C 16.585938 16.363281 16.613281 16.367188 16.640625 16.367188 L 16.746094 16.367188 C 16.757812 16.367188 16.769531 16.371094 16.777344 16.378906 C 16.785156 16.390625 16.792969 16.402344 16.792969 16.414062 C 16.78125 17.078125 17.195312 17.671875 17.820312 17.890625 C 18.191406 18.019531 18.601562 18.003906 18.960938 17.851562 C 19 17.832031 19.042969 17.835938 19.078125 17.859375 C 19.109375 17.882812 19.128906 17.917969 19.128906 17.957031 L 19.128906 18.203125 C 19.128906 18.414062 19.289062 18.582031 19.496094 18.59375 C 18.304688 19.234375 16.820312 18.785156 16.183594 17.589844 C 16.09375 17.421875 16.023438 17.242188 15.976562 17.0625 C 15.902344 16.769531 16.078125 16.476562 16.367188 16.402344 C 16.375 16.402344 16.382812 16.398438 16.386719 16.398438 C 16.441406 16.375 16.5 16.367188 16.554688 16.355469 "/>
<path style=" stroke:none;fill-rule:nonzero;fill:rgb(98.81897%,86.268616%,56.469727%);fill-opacity:1;" d="M 15.878906 27.871094 L 15.878906 30.054688 C 15.878906 30.820312 16.285156 31.527344 16.945312 31.914062 L 18.46875 32.792969 C 19.351562 33.308594 20.445312 33.308594 21.328125 32.792969 L 23.921875 31.289062 L 23.921875 27.871094 C 23.925781 27.105469 23.515625 26.394531 22.855469 26.011719 L 20.964844 24.925781 C 20.304688 24.542969 19.488281 24.542969 18.828125 24.925781 L 16.941406 26.015625 C 16.28125 26.398438 15.875 27.105469 15.878906 27.871094 "/>
<path style=" stroke:none;fill-rule:nonzero;fill:rgb(98.81897%,86.268616%,56.469727%);fill-opacity:1;" d="M 23.921875 27.871094 L 23.921875 31.289062 L 26.507812 32.792969 C 27.390625 33.308594 28.480469 33.308594 29.367188 32.792969 L 30.886719 31.910156 C 31.550781 31.527344 31.957031 30.820312 31.957031 30.050781 L 31.957031 27.871094 C 31.957031 27.105469 31.550781 26.394531 30.886719 26.011719 L 29.003906 24.925781 C 28.34375 24.542969 27.527344 24.542969 26.867188 24.925781 L 24.980469 26.019531 C 24.324219 26.402344 23.921875 27.109375 23.921875 27.871094 "/>
<path style=" stroke:none;fill-rule:nonzero;fill:rgb(98.429871%,94.898987%,79.998779%);fill-opacity:1;" d="M 17.589844 30.792969 C 17.324219 30.636719 17.160156 30.355469 17.160156 30.050781 L 17.160156 27.871094 C 17.160156 27.566406 17.324219 27.28125 17.589844 27.128906 L 19.472656 26.039062 C 19.601562 25.964844 19.75 25.925781 19.898438 25.925781 C 20.085938 25.929688 20.261719 25.835938 20.359375 25.679688 L 20.515625 25.417969 C 20.65625 25.171875 20.574219 24.859375 20.328125 24.714844 C 20.265625 24.679688 20.195312 24.65625 20.125 24.648438 C 19.675781 24.601562 19.222656 24.699219 18.828125 24.925781 L 16.941406 26.015625 C 16.277344 26.398438 15.871094 27.105469 15.871094 27.875 L 15.871094 30.054688 C 15.871094 30.824219 16.277344 31.53125 16.941406 31.914062 L 17.570312 32.28125 C 17.875 32.457031 18.265625 32.351562 18.441406 32.046875 C 18.445312 32.035156 18.449219 32.027344 18.457031 32.015625 L 18.457031 32.003906 C 18.609375 31.703125 18.496094 31.332031 18.207031 31.167969 L 17.589844 30.792969 "/>
<path style=" stroke:none;fill-rule:nonzero;fill:rgb(98.429871%,75.289917%,37.649536%);fill-opacity:1;" d="M 30.886719 26.015625 L 30.746094 25.929688 C 30.441406 25.753906 30.054688 25.855469 29.878906 26.160156 C 29.871094 26.171875 29.863281 26.1875 29.859375 26.199219 L 29.859375 26.210938 C 29.710938 26.511719 29.820312 26.875 30.109375 27.042969 L 30.253906 27.128906 C 30.515625 27.28125 30.679688 27.5625 30.679688 27.867188 L 30.679688 30.050781 C 30.679688 30.355469 30.515625 30.636719 30.253906 30.792969 L 28.730469 31.675781 C 28.242188 31.957031 27.640625 31.957031 27.152344 31.675781 L 27.039062 31.609375 C 26.753906 31.441406 26.390625 31.523438 26.199219 31.796875 L 26.191406 31.808594 C 25.992188 32.097656 26.066406 32.496094 26.355469 32.695312 C 26.367188 32.703125 26.382812 32.714844 26.398438 32.722656 L 26.515625 32.789062 C 27.398438 33.300781 28.488281 33.300781 29.375 32.789062 L 30.894531 31.90625 C 31.554688 31.523438 31.964844 30.8125 31.960938 30.046875 L 31.960938 27.871094 C 31.960938 27.105469 31.550781 26.394531 30.886719 26.015625 "/>
<path style=" stroke:none;fill-rule:nonzero;fill:rgb(87.059021%,54.899597%,30.589294%);fill-opacity:1;" d="M 23.210938 27.429688 L 24.617188 27.429688 L 24.617188 30.726562 C 24.617188 31.117188 24.300781 31.433594 23.914062 31.433594 C 23.523438 31.433594 23.210938 31.117188 23.210938 30.726562 L 23.210938 27.429688 "/>
<path style=" stroke:none;fill-rule:nonzero;fill:rgb(69.018555%,33.729553%,29.40979%);fill-opacity:1;" d="M 23.210938 25.402344 L 24.617188 25.402344 L 24.617188 28.703125 C 24.617188 29.09375 24.300781 29.410156 23.914062 29.410156 C 23.523438 29.410156 23.210938 29.09375 23.210938 28.703125 L 23.210938 25.402344 "/>
<path style=" stroke:none;fill-rule:nonzero;fill:rgb(97.24884%,60.778809%,18.03894%);fill-opacity:1;" d="M 23.210938 21.402344 L 20.773438 23.84375 C 20.5625 24.054688 20.5625 24.394531 20.773438 24.605469 C 20.875 24.707031 21.011719 24.765625 21.152344 24.765625 L 26.679688 24.765625 C 26.976562 24.765625 27.21875 24.523438 27.21875 24.226562 C 27.21875 24.082031 27.160156 23.945312 27.058594 23.84375 L 24.636719 21.402344 C 24.242188 21.007812 23.605469 21.007812 23.210938 21.402344 "/>
<path style=" stroke:none;fill-rule:nonzero;fill:rgb(89.408875%,28.239441%,21.569824%);fill-opacity:1;" d="M 26.863281 10.429688 L 26.863281 10.414062 C 26.761719 10.003906 26.347656 9.757812 25.9375 9.859375 C 25.871094 9.878906 25.804688 9.902344 25.746094 9.941406 L 25.042969 10.339844 C 24.359375 10.734375 23.515625 10.734375 22.828125 10.339844 L 22.097656 9.910156 C 21.773438 9.71875 21.355469 9.796875 21.121094 10.09375 L 21.105469 10.113281 C 20.847656 10.445312 20.90625 10.925781 21.238281 11.1875 C 21.265625 11.207031 21.296875 11.230469 21.328125 11.246094 L 22.058594 11.675781 C 22.191406 11.753906 22.328125 11.824219 22.472656 11.882812 C 22.921875 12.074219 23.214844 12.519531 23.214844 13.011719 C 23.203125 13.394531 23.484375 13.722656 23.863281 13.769531 C 24.261719 13.8125 24.613281 13.519531 24.652344 13.121094 C 24.65625 13.101562 24.65625 13.078125 24.65625 13.054688 L 24.65625 13.023438 C 24.65625 12.535156 24.949219 12.089844 25.398438 11.898438 C 25.539062 11.835938 25.679688 11.769531 25.8125 11.691406 L 26.507812 11.289062 C 26.808594 11.117188 26.953125 10.765625 26.863281 10.429688 "/>
<path style=" stroke:none;fill-rule:nonzero;fill:rgb(98.81897%,88.62915%,62.348938%);fill-opacity:1;" d="M 20.699219 17.433594 C 21.140625 17.433594 21.5 17.792969 21.5 18.238281 L 21.5 21.683594 C 21.5 22.128906 21.140625 22.488281 20.699219 22.488281 C 20.257812 22.488281 19.898438 22.128906 19.898438 21.683594 L 19.898438 18.238281 C 19.898438 17.792969 20.257812 17.433594 20.699219 17.433594 "/>
<path style=" stroke:none;fill-rule:nonzero;fill:rgb(98.81897%,88.62915%,62.348938%);fill-opacity:1;" d="M 22.6875 19.15625 C 22.980469 19.15625 23.214844 19.394531 23.214844 19.691406 L 23.214844 20.234375 C 23.214844 20.527344 22.980469 20.765625 22.6875 20.765625 C 22.394531 20.765625 22.15625 20.527344 22.15625 20.234375 L 22.15625 19.691406 C 22.15625 19.394531 22.394531 19.15625 22.6875 19.15625 "/>
<path style=" stroke:none;fill-rule:nonzero;fill:rgb(73.329163%,18.03894%,20.388794%);fill-opacity:1;" d="M 28.339844 7.738281 C 27.628906 7.738281 26.929688 7.925781 26.3125 8.28125 L 24.402344 9.386719 C 24.117188 9.554688 23.765625 9.554688 23.480469 9.386719 L 21.566406 8.28125 C 20.3125 7.554688 18.765625 7.554688 17.507812 8.28125 L 14.582031 9.984375 C 13.328125 10.710938 12.554688 12.054688 12.554688 13.507812 L 12.554688 22.007812 C 12.554688 23.464844 13.328125 24.808594 14.582031 25.535156 L 14.96875 25.761719 C 14.542969 26.378906 14.3125 27.117188 14.3125 27.871094 L 14.3125 30.054688 C 14.3125 31.382812 15.019531 32.605469 16.164062 33.273438 L 16.636719 33.542969 C 16.839844 36.136719 18.992188 38.132812 21.582031 38.136719 L 26.257812 38.136719 C 28.84375 38.132812 30.996094 36.136719 31.203125 33.542969 L 31.671875 33.273438 C 32.816406 32.605469 33.523438 31.382812 33.527344 30.054688 L 33.527344 27.871094 C 33.523438 27.125 33.300781 26.398438 32.886719 25.785156 L 33.3125 25.535156 C 34.566406 24.808594 35.335938 23.464844 35.339844 22.007812 L 35.339844 13.507812 C 35.335938 12.054688 34.5625 10.710938 33.308594 9.984375 L 30.375 8.28125 C 29.757812 7.925781 29.054688 7.734375 28.339844 7.738281 Z M 28.339844 9.308594 C 28.777344 9.308594 29.207031 9.425781 29.585938 9.644531 L 32.523438 11.339844 C 33.296875 11.785156 33.769531 12.609375 33.769531 13.503906 L 33.769531 22.007812 C 33.769531 22.902344 33.296875 23.726562 32.523438 24.171875 L 30.117188 25.566406 L 30.886719 26.015625 C 31.550781 26.398438 31.957031 27.105469 31.957031 27.875 L 31.957031 30.054688 C 31.957031 30.824219 31.550781 31.53125 30.886719 31.914062 L 29.644531 32.628906 L 29.644531 33.160156 C 29.644531 35.042969 28.128906 36.566406 26.253906 36.566406 L 21.582031 36.566406 C 19.707031 36.566406 18.1875 35.042969 18.1875 33.160156 L 18.1875 32.628906 L 16.945312 31.914062 C 16.285156 31.53125 15.878906 30.824219 15.878906 30.054688 L 15.878906 27.871094 C 15.878906 27.105469 16.285156 26.394531 16.945312 26.011719 L 17.746094 25.550781 L 15.371094 24.171875 C 14.601562 23.726562 14.125 22.902344 14.125 22.007812 L 14.125 13.507812 C 14.125 12.613281 14.601562 11.789062 15.371094 11.339844 L 18.304688 9.640625 C 19.078125 9.191406 20.027344 9.191406 20.796875 9.640625 L 22.707031 10.746094 C 23.476562 11.191406 24.425781 11.191406 25.195312 10.746094 L 27.109375 9.640625 C 27.484375 9.421875 27.910156 9.308594 28.339844 9.308594 "/>
<path style=" stroke:none;fill-rule:nonzero;fill:rgb(45.489502%,26.669312%,28.239441%);fill-opacity:1;" d="M 27.292969 23.671875 L 20.539062 23.671875 C 20.0625 23.671875 19.675781 24.058594 19.675781 24.539062 C 19.671875 24.832031 19.820312 25.105469 20.0625 25.265625 L 20.902344 25.820312 L 21.277344 26.070312 L 23.4375 27.5 C 23.726562 27.695312 24.105469 27.695312 24.394531 27.5 L 24.949219 27.132812 L 26.929688 25.816406 L 27.769531 25.261719 C 28.164062 24.992188 28.269531 24.453125 28.003906 24.054688 C 27.84375 23.816406 27.578125 23.671875 27.292969 23.671875 "/>
<path style=" stroke:none;fill-rule:nonzero;fill:rgb(28.239441%,18.818665%,23.139954%);fill-opacity:1;" d="M 23.433594 27.5 C 23.089844 27.273438 22.882812 26.890625 22.882812 26.476562 L 22.882812 25.703125 C 22.878906 25.148438 22.429688 24.703125 21.878906 24.707031 C 21.875 24.707031 21.871094 24.707031 21.863281 24.707031 C 21.539062 24.71875 21.242188 24.894531 21.074219 25.171875 C 20.890625 25.480469 20.984375 25.875 21.28125 26.070312 L 23.441406 27.5 C 23.609375 27.617188 23.816406 27.667969 24.019531 27.644531 C 23.8125 27.667969 23.605469 27.617188 23.433594 27.5 "/>
<path style=" stroke:none;fill-rule:nonzero;fill:rgb(28.239441%,18.818665%,23.139954%);fill-opacity:1;" d="M 25.910156 24.710938 C 25.367188 24.742188 24.941406 25.199219 24.949219 25.746094 L 24.949219 26.46875 C 24.949219 26.890625 24.738281 27.28125 24.390625 27.511719 L 24.945312 27.140625 L 26.5625 26.070312 C 26.855469 25.878906 26.949219 25.496094 26.777344 25.1875 C 26.601562 24.878906 26.265625 24.695312 25.910156 24.710938 "/>
<path style=" stroke:none;fill-rule:nonzero;fill:rgb(89.408875%,28.239441%,21.569824%);fill-opacity:1;" d="M 31.582031 39.945312 C 31.070312 39.945312 30.652344 39.53125 30.652344 39.019531 C 30.652344 38.707031 30.804688 38.417969 31.058594 38.246094 L 31.628906 37.855469 C 32.042969 37.554688 32.621094 37.648438 32.921875 38.0625 C 33.222656 38.480469 33.128906 39.058594 32.714844 39.359375 C 32.699219 39.371094 32.683594 39.382812 32.667969 39.390625 L 32.097656 39.785156 C 31.945312 39.890625 31.765625 39.945312 31.582031 39.945312 "/>
<path style=" stroke:none;fill-rule:nonzero;fill:rgb(73.329163%,18.03894%,20.388794%);fill-opacity:1;" d="M 33.679688 7.652344 L 33.644531 7.652344 L 32.332031 7.601562 C 31.820312 7.582031 31.421875 7.152344 31.441406 6.636719 C 31.460938 6.125 31.890625 5.722656 32.402344 5.742188 L 33.714844 5.792969 C 34.226562 5.800781 34.632812 6.226562 34.625 6.738281 C 34.613281 7.253906 34.191406 7.660156 33.679688 7.652344 "/>
<path style=" stroke:none;fill-rule:nonzero;fill:rgb(95.689392%,47.059631%,13.328552%);fill-opacity:1;" d="M 17.15625 41.394531 C 17 41.394531 16.84375 41.351562 16.707031 41.273438 L 16.070312 40.917969 C 15.628906 40.65625 15.484375 40.085938 15.742188 39.644531 C 15.996094 39.214844 16.539062 39.0625 16.976562 39.296875 L 17.609375 39.652344 C 18.058594 39.902344 18.214844 40.46875 17.964844 40.917969 C 17.800781 41.210938 17.492188 41.394531 17.15625 41.394531 "/>
<path style=" stroke:none;fill-rule:nonzero;fill:rgb(95.689392%,47.059631%,13.328552%);fill-opacity:1;" d="M 9.957031 12.277344 C 9.828125 12.277344 9.703125 12.25 9.585938 12.199219 L 8.34375 11.65625 C 7.875 11.449219 7.660156 10.902344 7.863281 10.433594 C 8.070312 9.960938 8.613281 9.746094 9.085938 9.953125 L 10.328125 10.496094 C 10.796875 10.699219 11.011719 11.246094 10.808594 11.71875 C 10.660156 12.058594 10.324219 12.277344 9.957031 12.277344 "/>
<path style=" stroke:none;fill-rule:nonzero;fill:rgb(97.24884%,60.778809%,18.03894%);fill-opacity:1;" d="M 26.53125 28.019531 C 26.875 28.019531 27.152344 28.296875 27.152344 28.640625 C 27.152344 28.984375 26.875 29.265625 26.53125 29.265625 C 26.1875 29.265625 25.910156 28.984375 25.910156 28.640625 C 25.910156 28.296875 26.1875 28.019531 26.53125 28.019531 "/>
<path style=" stroke:none;fill-rule:nonzero;fill:rgb(95.689392%,47.059631%,13.328552%);fill-opacity:1;" d="M 30.15625 28.019531 C 30.5 28.019531 30.777344 28.296875 30.777344 28.640625 C 30.777344 28.984375 30.5 29.265625 30.15625 29.265625 C 29.8125 29.265625 29.535156 28.984375 29.535156 28.640625 C 29.535156 28.296875 29.8125 28.019531 30.15625 28.019531 "/>
<path style=" stroke:none;fill-rule:nonzero;fill:rgb(97.24884%,60.778809%,18.03894%);fill-opacity:1;" d="M 28.34375 28.019531 C 28.6875 28.019531 28.964844 28.296875 28.964844 28.640625 C 28.964844 28.984375 28.6875 29.265625 28.34375 29.265625 C 28 29.265625 27.722656 28.984375 27.722656 28.640625 C 27.722656 28.296875 28 28.019531 28.34375 28.019531 "/>
<path style=" stroke:none;fill-rule:nonzero;fill:rgb(97.24884%,60.778809%,18.03894%);fill-opacity:1;" d="M 27.4375 29.574219 C 27.78125 29.574219 28.058594 29.855469 28.058594 30.199219 C 28.058594 30.542969 27.78125 30.824219 27.4375 30.824219 C 27.09375 30.824219 26.816406 30.542969 26.816406 30.199219 C 26.816406 29.855469 27.09375 29.574219 27.4375 29.574219 "/>
<path style=" stroke:none;fill-rule:nonzero;fill:rgb(95.689392%,47.059631%,13.328552%);fill-opacity:1;" d="M 29.25 29.574219 C 29.59375 29.574219 29.871094 29.855469 29.871094 30.199219 C 29.871094 30.542969 29.59375 30.824219 29.25 30.824219 C 28.90625 30.824219 28.628906 30.542969 28.628906 30.199219 C 28.628906 29.855469 28.90625 29.574219 29.25 29.574219 "/>
<path style=" stroke:none;fill-rule:nonzero;fill:rgb(97.24884%,60.778809%,18.03894%);fill-opacity:1;" d="M 21.300781 28.019531 C 21.644531 28.019531 21.921875 28.296875 21.921875 28.640625 C 21.921875 28.984375 21.644531 29.265625 21.300781 29.265625 C 20.960938 29.265625 20.679688 28.984375 20.679688 28.640625 C 20.679688 28.296875 20.960938 28.019531 21.300781 28.019531 "/>
<path style=" stroke:none;fill-rule:nonzero;fill:rgb(97.24884%,60.778809%,18.03894%);fill-opacity:1;" d="M 17.679688 28.019531 C 18.019531 28.019531 18.300781 28.296875 18.300781 28.640625 C 18.300781 28.984375 18.019531 29.265625 17.679688 29.265625 C 17.335938 29.265625 17.054688 28.984375 17.054688 28.640625 C 17.054688 28.296875 17.335938 28.019531 17.679688 28.019531 "/>
<path style=" stroke:none;fill-rule:nonzero;fill:rgb(97.24884%,60.778809%,18.03894%);fill-opacity:1;" d="M 19.492188 28.019531 C 19.832031 28.019531 20.113281 28.296875 20.113281 28.640625 C 20.113281 28.984375 19.832031 29.265625 19.492188 29.265625 C 19.148438 29.265625 18.871094 28.984375 18.871094 28.640625 C 18.871094 28.296875 19.148438 28.019531 19.492188 28.019531 "/>
<path style=" stroke:none;fill-rule:nonzero;fill:rgb(97.24884%,60.778809%,18.03894%);fill-opacity:1;" d="M 20.394531 29.574219 C 20.738281 29.574219 21.015625 29.855469 21.015625 30.199219 C 21.015625 30.542969 20.738281 30.824219 20.394531 30.824219 C 20.050781 30.824219 19.773438 30.542969 19.773438 30.199219 C 19.773438 29.855469 20.050781 29.574219 20.394531 29.574219 "/>
<path style=" stroke:none;fill-rule:nonzero;fill:rgb(97.24884%,60.778809%,18.03894%);fill-opacity:1;" d="M 18.585938 29.574219 C 18.925781 29.574219 19.207031 29.855469 19.207031 30.199219 C 19.207031 30.542969 18.925781 30.824219 18.585938 30.824219 C 18.242188 30.824219 17.960938 30.542969 17.960938 30.199219 C 17.960938 29.855469 18.242188 29.574219 18.585938 29.574219 "/>
</g>
</svg>
